<svg version="1.1" id="Layer_1" xmlns="http://www.w3.org/2000/svg" xmlns:xlink="http://www.w3.org/1999/xlink" x="0px" y="0px"
	 width="100%" viewBox="0 0 2000 2000" enable-background="new 0 0 2000 2000" xml:space="preserve">
<path fill="transparent" opacity="1.000000" stroke="none" 
	d="
M1154.000000,2001.000000 
	C769.333313,2001.000000 385.166656,2001.000000 1.000000,2001.000000 
	C1.000000,1334.333374 1.000000,667.666687 1.000000,1.000000 
	C667.666687,1.000000 1334.333374,1.000000 2001.000000,1.000000 
	C2001.000000,667.666687 2001.000000,1334.333374 2001.000000,2001.000000 
	C1718.833374,2001.000000 1436.666626,2001.000000 1154.000000,2001.000000 
M914.873352,7.111863 
	C903.633118,8.406855 892.389832,9.675623 881.153564,11.004287 
	C870.078247,12.313914 858.936401,13.252316 847.955811,15.127368 
	C830.744995,18.066326 813.653687,21.700083 796.496643,24.960230 
	C764.906189,30.962997 733.926514,39.334538 703.259521,48.918427 
	C666.760071,60.325035 631.111755,73.928596 596.078857,89.299431 
	C563.625977,103.538292 532.013489,119.434990 501.579956,137.446335 
	C475.884460,152.653534 450.878815,169.126862 426.329895,186.139450 
	C406.464508,199.906357 387.358154,214.849121 368.605774,230.118530 
	C350.227783,245.083115 332.306458,260.672668 314.963043,276.823730 
	C300.629669,290.171692 287.050934,304.390747 273.826202,318.853271 
	C256.935455,337.324921 240.377869,356.130280 224.357178,375.358765 
	C212.329132,389.795135 200.933746,404.813171 190.059433,420.141724 
	C177.976303,437.174255 166.259995,454.520355 155.371078,472.333344 
	C141.397766,495.192047 128.093674,518.477966 115.117638,541.921021 
	C107.829651,555.087769 101.622047,568.866211 95.228104,582.509827 
	C89.615562,594.486084 83.796135,606.424561 79.169434,618.791748 
	C68.601807,647.039062 58.198814,675.369812 48.718300,703.994324 
	C42.275360,723.447510 36.973240,743.325989 32.137997,763.251343 
	C26.874226,784.942627 22.481014,806.857544 18.210207,828.772827 
	C15.646185,841.929810 13.757753,855.238098 12.085109,868.543701 
	C10.385165,882.066467 9.186254,895.657593 8.016275,909.240173 
	C6.545731,926.311951 4.289474,943.401123 4.215939,960.490662 
	C4.061592,996.360596 2.523717,1032.280884 5.979553,1068.104370 
	C7.417256,1083.007812 8.350642,1097.965576 10.062630,1112.835327 
	C12.048460,1130.083496 14.187665,1147.338135 17.079334,1164.451660 
	C20.696457,1185.858521 24.453989,1207.286621 29.391523,1228.415527 
	C38.070412,1265.554810 48.109158,1302.378174 62.036415,1337.948242 
	C73.568611,1367.401245 85.317543,1396.803101 98.172081,1425.692871 
	C107.083153,1445.720093 117.406090,1465.196289 128.236649,1484.272339 
	C141.536316,1507.697144 155.416565,1530.843872 170.141144,1553.395752 
	C190.654160,1584.813110 213.105469,1614.871460 237.737610,1643.238403 
	C248.972565,1656.177002 259.953156,1669.350830 271.556183,1681.950928 
	C280.855377,1692.049316 290.797668,1701.569336 300.677002,1711.115845 
	C312.358368,1722.403809 324.006012,1733.752686 336.165253,1744.513428 
	C350.948303,1757.596436 365.856323,1770.599121 381.425842,1782.717041 
	C401.173920,1798.087402 421.275909,1813.066284 441.908539,1827.217896 
	C459.958923,1839.598022 478.782654,1850.887939 497.585510,1862.122559 
	C513.729004,1871.768311 530.039062,1881.220459 546.799561,1889.725464 
	C565.306702,1899.116943 584.212708,1907.796631 603.307068,1915.937256 
	C624.859863,1925.126099 646.596252,1933.981689 668.645569,1941.886597 
	C705.477112,1955.091064 742.957031,1966.267944 781.340637,1974.124878 
	C803.079041,1978.574585 824.804077,1983.176880 846.682007,1986.830933 
	C864.937683,1989.880005 883.369934,1992.018433 901.792725,1993.879761 
	C919.810608,1995.700195 937.900208,1996.944580 955.986755,1997.908447 
	C970.568115,1998.685425 985.190735,1998.829834 999.797302,1998.934204 
	C1007.232666,1998.987305 1014.670227,1998.239868 1022.111755,1998.020264 
	C1035.880493,1997.613525 1049.676392,1997.717407 1063.417114,1996.884033 
	C1077.026855,1996.058472 1090.586182,1994.375854 1104.160767,1993.001221 
	C1116.904663,1991.710571 1129.717285,1990.832520 1142.359985,1988.872070 
	C1160.751465,1986.020142 1179.021729,1982.382690 1197.336304,1979.040161 
	C1228.801758,1973.297241 1259.800781,1965.578857 1290.270996,1955.924072 
	C1312.943115,1948.739868 1335.578003,1941.300537 1357.771851,1932.782227 
	C1380.872070,1923.915649 1403.612305,1914.034546 1426.149048,1903.802246 
	C1441.802246,1896.695068 1457.060913,1888.633545 1472.108765,1880.299072 
	C1493.542725,1868.427368 1515.160522,1856.747437 1535.709473,1843.454712 
	C1559.039429,1828.362793 1581.774658,1812.233521 1603.853149,1795.357544 
	C1626.807983,1777.811646 1648.932129,1759.142822 1670.906494,1740.364502 
	C1683.372314,1729.711670 1695.265625,1718.291626 1706.603149,1706.438721 
	C1724.305054,1687.932373 1741.511841,1668.939697 1758.547363,1649.813477 
	C1768.914185,1638.174438 1779.244995,1626.392090 1788.394897,1613.803833 
	C1807.511597,1587.504028 1826.599609,1561.122070 1844.247559,1533.834961 
	C1858.954834,1511.095215 1871.881104,1487.176758 1885.026611,1463.464600 
	C1892.086914,1450.728882 1898.188721,1437.439453 1904.291260,1424.200806 
	C1912.354614,1406.708374 1920.615479,1389.265869 1927.684448,1371.364868 
	C1941.580444,1336.176270 1953.992310,1300.430542 1963.522827,1263.784180 
	C1968.813110,1243.442505 1973.438354,1222.919678 1977.961792,1202.390015 
	C1980.979492,1188.693848 1983.512329,1174.879272 1985.848999,1161.048096 
	C1987.867920,1149.098022 1989.518677,1137.074829 1990.934814,1125.037109 
	C1992.241455,1113.929810 1993.111572,1102.767700 1994.010376,1091.616577 
	C1995.413208,1074.215332 1997.732544,1056.805664 1997.777466,1039.394653 
	C1997.866333,1004.860718 1996.875122,970.317688 1995.901123,935.790527 
	C1995.506470,921.803650 1994.431274,907.798828 1992.867432,893.891846 
	C1991.038940,877.630798 1988.636230,861.418274 1985.942383,845.274780 
	C1982.584717,825.154114 1979.450928,804.944397 1974.813965,785.101685 
	C1968.588257,758.459534 1961.619995,731.952698 1953.829346,705.726807 
	C1947.801758,685.435486 1940.746460,665.373230 1932.846436,645.732727 
	C1921.589600,617.746704 1910.316162,589.654907 1896.889404,562.683777 
	C1881.831299,532.435364 1865.048462,502.977753 1847.717041,473.951691 
	C1835.338257,453.220398 1821.411743,433.330536 1807.086304,413.867188 
	C1792.324463,393.810455 1776.551392,374.468994 1760.639771,355.296783 
	C1748.133179,340.227448 1735.369751,325.269897 1721.594849,311.378967 
	C1701.867920,291.486115 1681.192749,272.527985 1660.761963,253.341705 
	C1652.720825,245.790298 1644.556641,238.307098 1635.903809,231.483429 
	C1619.340942,218.421783 1602.489380,205.718643 1585.574341,193.112610 
	C1557.526367,172.209625 1528.182739,153.227142 1497.743774,136.036270 
	C1478.117065,124.951820 1458.015747,114.679291 1437.877808,104.538086 
	C1423.125977,97.109283 1408.294189,89.647446 1392.923828,83.679070 
	C1362.062134,71.695457 1331.043945,60.012535 1299.635620,49.574039 
	C1277.411743,42.187981 1254.620239,36.249699 1231.756592,31.115732 
	C1204.219482,24.932409 1176.424316,19.763393 1148.576782,15.143427 
	C1127.411499,11.632042 1106.029785,9.263186 1084.669556,7.139114 
	C1068.087402,5.490184 1051.397217,4.344642 1034.741699,4.157263 
	C1010.311279,3.882416 985.865173,4.496362 961.433167,5.054638 
	C946.217163,5.402327 931.014832,6.345672 914.873352,7.111863 
z"/>
<path fill="#1ED760" opacity="1.000000" stroke="none" 
	d="
M915.339844,7.066777 
	C931.014832,6.345672 946.217163,5.402327 961.433167,5.054638 
	C985.865173,4.496362 1010.311279,3.882416 1034.741699,4.157263 
	C1051.397217,4.344642 1068.087402,5.490184 1084.669556,7.139114 
	C1106.029785,9.263186 1127.411499,11.632042 1148.576782,15.143427 
	C1176.424316,19.763393 1204.219482,24.932409 1231.756592,31.115732 
	C1254.620239,36.249699 1277.411743,42.187981 1299.635620,49.574039 
	C1331.043945,60.012535 1362.062134,71.695457 1392.923828,83.679070 
	C1408.294189,89.647446 1423.125977,97.109283 1437.877808,104.538086 
	C1458.015747,114.679291 1478.117065,124.951820 1497.743774,136.036270 
	C1528.182739,153.227142 1557.526367,172.209625 1585.574341,193.112610 
	C1602.489380,205.718643 1619.340942,218.421783 1635.903809,231.483429 
	C1644.556641,238.307098 1652.720825,245.790298 1660.761963,253.341705 
	C1681.192749,272.527985 1701.867920,291.486115 1721.594849,311.378967 
	C1735.369751,325.269897 1748.133179,340.227448 1760.639771,355.296783 
	C1776.551392,374.468994 1792.324463,393.810455 1807.086304,413.867188 
	C1821.411743,433.330536 1835.338257,453.220398 1847.717041,473.951691 
	C1865.048462,502.977753 1881.831299,532.435364 1896.889404,562.683777 
	C1910.316162,589.654907 1921.589600,617.746704 1932.846436,645.732727 
	C1940.746460,665.373230 1947.801758,685.435486 1953.829346,705.726807 
	C1961.619995,731.952698 1968.588257,758.459534 1974.813965,785.101685 
	C1979.450928,804.944397 1982.584717,825.154114 1985.942383,845.274780 
	C1988.636230,861.418274 1991.038940,877.630798 1992.867432,893.891846 
	C1994.431274,907.798828 1995.506470,921.803650 1995.901123,935.790527 
	C1996.875122,970.317688 1997.866333,1004.860718 1997.777466,1039.394653 
	C1997.732544,1056.805664 1995.413208,1074.215332 1994.010376,1091.616577 
	C1993.111572,1102.767700 1992.241455,1113.929810 1990.934814,1125.037109 
	C1989.518677,1137.074829 1987.867920,1149.098022 1985.848999,1161.048096 
	C1983.512329,1174.879272 1980.979492,1188.693848 1977.961792,1202.390015 
	C1973.438354,1222.919678 1968.813110,1243.442505 1963.522827,1263.784180 
	C1953.992310,1300.430542 1941.580444,1336.176270 1927.684448,1371.364868 
	C1920.615479,1389.265869 1912.354614,1406.708374 1904.291260,1424.200806 
	C1898.188721,1437.439453 1892.086914,1450.728882 1885.026611,1463.464600 
	C1871.881104,1487.176758 1858.954834,1511.095215 1844.247559,1533.834961 
	C1826.599609,1561.122070 1807.511597,1587.504028 1788.394897,1613.803833 
	C1779.244995,1626.392090 1768.914185,1638.174438 1758.547363,1649.813477 
	C1741.511841,1668.939697 1724.305054,1687.932373 1706.603149,1706.438721 
	C1695.265625,1718.291626 1683.372314,1729.711670 1670.906494,1740.364502 
	C1648.932129,1759.142822 1626.807983,1777.811646 1603.853149,1795.357544 
	C1581.774658,1812.233521 1559.039429,1828.362793 1535.709473,1843.454712 
	C1515.160522,1856.747437 1493.542725,1868.427368 1472.108765,1880.299072 
	C1457.060913,1888.633545 1441.802246,1896.695068 1426.149048,1903.802246 
	C1403.612305,1914.034546 1380.872070,1923.915649 1357.771851,1932.782227 
	C1335.578003,1941.300537 1312.943115,1948.739868 1290.270996,1955.924072 
	C1259.800781,1965.578857 1228.801758,1973.297241 1197.336304,1979.040161 
	C1179.021729,1982.382690 1160.751465,1986.020142 1142.359985,1988.872070 
	C1129.717285,1990.832520 1116.904663,1991.710571 1104.160767,1993.001221 
	C1090.586182,1994.375854 1077.026855,1996.058472 1063.417114,1996.884033 
	C1049.676392,1997.717407 1035.880493,1997.613525 1022.111755,1998.020264 
	C1014.670227,1998.239868 1007.232666,1998.987305 999.797302,1998.934204 
	C985.190735,1998.829834 970.568115,1998.685425 955.986755,1997.908447 
	C937.900208,1996.944580 919.810608,1995.700195 901.792725,1993.879761 
	C883.369934,1992.018433 864.937683,1989.880005 846.682007,1986.830933 
	C824.804077,1983.176880 803.079041,1978.574585 781.340637,1974.124878 
	C742.957031,1966.267944 705.477112,1955.091064 668.645569,1941.886597 
	C646.596252,1933.981689 624.859863,1925.126099 603.307068,1915.937256 
	C584.212708,1907.796631 565.306702,1899.116943 546.799561,1889.725464 
	C530.039062,1881.220459 513.729004,1871.768311 497.585510,1862.122559 
	C478.782654,1850.887939 459.958923,1839.598022 441.908539,1827.217896 
	C421.275909,1813.066284 401.173920,1798.087402 381.425842,1782.717041 
	C365.856323,1770.599121 350.948303,1757.596436 336.165253,1744.513428 
	C324.006012,1733.752686 312.358368,1722.403809 300.677002,1711.115845 
	C290.797668,1701.569336 280.855377,1692.049316 271.556183,1681.950928 
	C259.953156,1669.350830 248.972565,1656.177002 237.737610,1643.238403 
	C213.105469,1614.871460 190.654160,1584.813110 170.141144,1553.395752 
	C155.416565,1530.843872 141.536316,1507.697144 128.236649,1484.272339 
	C117.406090,1465.196289 107.083153,1445.720093 98.172081,1425.692871 
	C85.317543,1396.803101 73.568611,1367.401245 62.036415,1337.948242 
	C48.109158,1302.378174 38.070412,1265.554810 29.391523,1228.415527 
	C24.453989,1207.286621 20.696457,1185.858521 17.079334,1164.451660 
	C14.187665,1147.338135 12.048460,1130.083496 10.062630,1112.835327 
	C8.350642,1097.965576 7.417256,1083.007812 5.979553,1068.104370 
	C2.523717,1032.280884 4.061592,996.360596 4.215939,960.490662 
	C4.289474,943.401123 6.545731,926.311951 8.016275,909.240173 
	C9.186254,895.657593 10.385165,882.066467 12.085109,868.543701 
	C13.757753,855.238098 15.646185,841.929810 18.210207,828.772827 
	C22.481014,806.857544 26.874226,784.942627 32.137997,763.251343 
	C36.973240,743.325989 42.275360,723.447510 48.718300,703.994324 
	C58.198814,675.369812 68.601807,647.039062 79.169434,618.791748 
	C83.796135,606.424561 89.615562,594.486084 95.228104,582.509827 
	C101.622047,568.866211 107.829651,555.087769 115.117638,541.921021 
	C128.093674,518.477966 141.397766,495.192047 155.371078,472.333344 
	C166.259995,454.520355 177.976303,437.174255 190.059433,420.141724 
	C200.933746,404.813171 212.329132,389.795135 224.357178,375.358765 
	C240.377869,356.130280 256.935455,337.324921 273.826202,318.853271 
	C287.050934,304.390747 300.629669,290.171692 314.963043,276.823730 
	C332.306458,260.672668 350.227783,245.083115 368.605774,230.118530 
	C387.358154,214.849121 406.464508,199.906357 426.329895,186.139450 
	C450.878815,169.126862 475.884460,152.653534 501.579956,137.446335 
	C532.013489,119.434990 563.625977,103.538292 596.078857,89.299431 
	C631.111755,73.928596 666.760071,60.325035 703.259521,48.918427 
	C733.926514,39.334538 764.906189,30.962997 796.496643,24.960230 
	C813.653687,21.700083 830.744995,18.066326 847.955811,15.127368 
	C858.936401,13.252316 870.078247,12.313914 881.153564,11.004287 
	C892.389832,9.675623 903.633118,8.406855 915.339844,7.066777 
M1712.537598,752.065002 
	C1705.911865,745.684875 1700.012939,738.227051 1692.500854,733.161194 
	C1679.109375,724.130615 1665.004639,716.051880 1650.720093,708.476929 
	C1631.329346,698.194336 1611.655029,688.406311 1591.793945,679.061523 
	C1571.999878,669.748413 1552.157593,660.372803 1531.741211,652.585144 
	C1498.882935,640.051697 1465.819702,627.907227 1432.316040,617.256104 
	C1397.890503,606.311951 1362.910645,597.068115 1328.021362,587.642700 
	C1308.991089,582.501587 1289.759155,577.948242 1270.416382,574.159790 
	C1240.440308,568.288696 1210.325928,563.095703 1180.204834,558.002258 
	C1158.585083,554.346436 1136.894897,551.056274 1115.168457,548.100159 
	C1097.446655,545.688843 1079.638672,543.875610 1061.842529,542.054626 
	C1046.789429,540.514465 1031.708618,539.212463 1016.621399,538.045959 
	C1001.496582,536.876465 986.354736,535.899170 971.209106,535.033875 
	C957.016968,534.222961 942.813232,533.591187 928.608765,533.026306 
	C917.175537,532.571533 905.732178,532.009766 894.295959,532.064209 
	C865.524353,532.201294 836.751099,532.496948 807.984619,533.047119 
	C788.604614,533.417664 769.232117,534.258789 749.861572,535.023315 
	C735.981323,535.571106 722.108276,536.310242 708.235291,537.028015 
	C703.626099,537.266479 699.019531,537.623901 694.425049,538.065491 
	C681.173645,539.339111 667.928589,540.678223 654.682007,542.001648 
	C644.377747,543.031128 634.055664,543.915527 623.776611,545.154968 
	C611.747253,546.605286 599.753845,548.355225 587.748840,550.004333 
	C577.685730,551.386597 567.591248,552.588745 557.577515,554.269104 
	C543.401184,556.647949 529.253601,559.227722 515.153076,562.021179 
	C494.666779,566.079834 474.099457,569.851868 453.812317,574.761292 
	C429.752106,580.583740 405.988312,587.620178 382.030640,593.880188 
	C355.603333,600.785522 336.327393,616.774780 323.394653,640.368286 
	C313.617401,658.205078 310.908569,677.510254 313.952637,697.662415 
	C317.792694,723.084351 330.411652,743.223877 350.932648,758.281982 
	C367.934570,770.757812 387.144501,776.600708 408.426178,776.124207 
	C421.296783,775.835938 433.079590,771.417297 445.257233,768.372864 
	C472.590942,761.539246 499.799500,754.104065 527.338867,748.224792 
	C550.952148,743.183777 574.920166,739.745728 598.795593,736.009399 
	C617.880615,733.022766 637.039795,730.474060 656.208862,728.072388 
	C669.412781,726.418091 682.674133,725.157593 695.937927,724.061218 
	C714.331726,722.540955 732.741882,721.177246 751.163818,720.052979 
	C766.190247,719.136047 781.239197,718.279236 796.286865,718.089539 
	C821.656189,717.769836 847.033264,717.879028 872.405518,718.041443 
	C889.010559,718.147766 905.613708,718.635498 922.216370,719.009766 
	C934.819946,719.293823 947.423340,719.610657 960.023010,720.028015 
	C965.798157,720.219299 971.572998,720.578918 977.332581,721.050354 
	C992.751892,722.312317 1008.162415,723.681702 1023.577332,724.997559 
	C1035.551270,726.019775 1047.555664,726.765320 1059.493774,728.103760 
	C1074.802490,729.820129 1090.059570,731.997986 1105.336670,733.995178 
	C1118.173462,735.673401 1131.049805,737.108643 1143.830811,739.140869 
	C1158.500488,741.473450 1173.105591,744.233398 1187.700684,747.008667 
	C1210.306152,751.307190 1232.980713,755.318115 1255.437500,760.300598 
	C1278.166626,765.343384 1300.886353,770.670349 1323.213989,777.222656 
	C1354.459839,786.392151 1385.498291,796.341919 1416.332275,806.820923 
	C1451.413818,818.743530 1485.644531,832.980591 1518.985229,849.117310 
	C1542.248901,860.376892 1565.074097,872.626160 1587.572144,885.357605 
	C1605.507690,895.507202 1623.827271,901.988770 1644.819092,900.159241 
	C1656.588745,899.133484 1667.671753,896.340576 1678.203979,891.306702 
	C1700.038086,880.871033 1715.173950,863.895569 1724.491455,841.841797 
	C1730.136597,828.480286 1732.353882,814.169678 1730.812866,799.779846 
	C1728.981079,782.676331 1723.088745,766.788269 1712.537598,752.065002 
M1273.586060,939.983398 
	C1246.754395,932.658447 1220.007202,925.002319 1193.061523,918.124146 
	C1174.903198,913.489014 1156.518677,909.680481 1138.135620,906.000610 
	C1119.726807,902.315552 1101.217773,899.110474 1082.708496,895.954041 
	C1066.108887,893.123291 1049.489624,890.343933 1032.804810,888.093323 
	C1015.255676,885.726074 997.638855,883.803040 980.013428,882.075684 
	C963.463501,880.453796 946.873108,879.206299 930.282776,878.047668 
	C917.589539,877.161194 904.873169,876.563599 892.158875,876.034607 
	C880.561218,875.552002 868.951355,875.028687 857.348877,875.070618 
	C839.249939,875.135986 821.151794,875.620422 803.055115,876.011719 
	C791.451416,876.262634 779.845703,876.540161 768.250610,877.034485 
	C756.368896,877.541138 744.483154,878.120789 732.627563,879.036682 
	C713.269470,880.531921 693.920349,882.180908 674.594055,884.040588 
	C659.564209,885.486816 644.512207,886.929932 629.582825,889.136841 
	C610.027344,892.027588 590.513611,895.312683 571.108215,899.078796 
	C547.900146,903.582947 524.746216,908.432922 501.717896,913.775757 
	C483.309631,918.046631 465.150452,923.380737 446.833832,928.059326 
	C423.497528,934.020142 403.741638,945.014038 391.027802,966.433838 
	C381.051056,983.242432 377.456970,1001.363281 381.374451,1020.369751 
	C385.222595,1039.040161 394.502472,1054.881958 410.054230,1066.560791 
	C423.504883,1076.661499 438.547424,1082.355469 455.421387,1082.999268 
	C467.440338,1083.458008 478.665375,1079.771973 490.011658,1076.541626 
	C505.208099,1072.214966 520.373718,1067.688232 535.757324,1064.133423 
	C557.524109,1059.103760 579.430725,1054.639160 601.368164,1050.402344 
	C616.285339,1047.521240 631.320557,1045.175781 646.371582,1043.084473 
	C660.993347,1041.052734 675.691589,1039.546753 690.376221,1037.999268 
	C707.213745,1036.225098 724.057312,1034.469116 740.928345,1033.067017 
	C752.940063,1032.068848 764.995239,1031.509766 777.042236,1031.043701 
	C790.464233,1030.524292 803.898865,1030.070068 817.328003,1030.071167 
	C830.930115,1030.072266 844.532776,1030.646851 858.134277,1031.002930 
	C869.906006,1031.311157 881.686401,1031.466309 893.445251,1032.047241 
	C909.762512,1032.853027 926.076721,1033.815918 942.367065,1035.044434 
	C956.630920,1036.120239 970.887207,1037.419312 985.097900,1039.046753 
	C1003.333984,1041.135498 1021.547668,1043.464355 1039.721802,1046.037231 
	C1056.887329,1048.467163 1074.071655,1050.911865 1091.097778,1054.141235 
	C1111.596436,1058.029419 1132.074829,1062.198730 1152.310913,1067.252197 
	C1178.713257,1073.845337 1205.013916,1080.940796 1231.085083,1088.734253 
	C1251.992676,1094.984497 1272.693481,1102.063721 1293.122803,1109.741577 
	C1317.714600,1118.983887 1342.148804,1128.729492 1366.223022,1139.237793 
	C1384.923096,1147.400513 1403.087402,1156.831787 1421.258789,1166.149780 
	C1433.176758,1172.261230 1444.703003,1179.140869 1456.367432,1185.742065 
	C1464.880249,1190.559570 1473.035645,1196.125244 1481.876831,1200.220947 
	C1497.997314,1207.689087 1515.084717,1209.564819 1532.324219,1204.895264 
	C1558.436401,1197.822266 1576.743164,1181.617065 1586.386841,1156.148926 
	C1591.633667,1142.292358 1592.384644,1128.178833 1589.125854,1113.582031 
	C1584.961182,1094.927246 1575.939697,1078.931641 1560.050049,1068.945312 
	C1533.509155,1052.265015 1506.162476,1036.752441 1478.438599,1022.104248 
	C1456.235962,1010.373291 1433.220703,1000.067200 1410.107788,990.202759 
	C1384.937744,979.460388 1359.382080,969.571472 1333.724121,960.038757 
	C1314.170288,952.774048 1294.193848,946.646362 1273.586060,939.983398 
M480.715149,1367.996948 
	C496.126373,1365.172363 511.559753,1362.462402 526.941711,1359.486450 
	C538.947510,1357.163574 550.845886,1354.273193 562.871094,1352.065674 
	C577.325562,1349.412476 591.861084,1347.199707 606.366455,1344.826172 
	C620.390015,1342.531616 634.390320,1340.067993 648.455994,1338.065918 
	C660.144470,1336.402222 671.912964,1335.300293 683.646118,1333.950562 
	C697.986694,1332.300903 712.308228,1330.454468 726.673645,1329.061523 
	C739.790527,1327.789551 752.943115,1326.791992 766.101624,1326.067383 
	C782.463013,1325.166748 798.851074,1324.024780 815.220032,1324.133179 
	C850.261169,1324.364868 885.298035,1325.301270 920.335022,1326.029663 
	C926.610535,1326.160034 932.900452,1326.448608 939.144775,1327.061035 
	C954.673767,1328.584351 970.186035,1330.284546 985.693848,1332.013794 
	C997.110413,1333.286987 1008.592102,1334.236938 1019.898254,1336.182373 
	C1040.810303,1339.780884 1061.740479,1343.446167 1082.432251,1348.108276 
	C1108.016846,1353.872925 1133.557007,1360.016479 1158.758179,1367.244995 
	C1179.579346,1373.217041 1200.161865,1380.282837 1220.340332,1388.168213 
	C1246.149536,1398.253662 1271.636719,1409.228271 1296.893677,1420.636719 
	C1311.938965,1427.432373 1326.378052,1435.608032 1340.897339,1443.516602 
	C1351.503296,1449.293701 1361.935547,1455.421265 1372.194092,1461.796631 
	C1386.967896,1470.977905 1402.952393,1473.512451 1419.530640,1469.592651 
	C1448.570312,1462.726440 1470.285645,1433.735596 1466.081543,1403.021973 
	C1463.515015,1384.272339 1455.569946,1368.740234 1439.287598,1358.883057 
	C1418.054077,1346.028198 1396.363159,1333.899048 1374.559570,1322.026001 
	C1361.056396,1314.672852 1347.077026,1308.163330 1333.129272,1301.666138 
	C1320.575928,1295.818481 1307.879150,1290.246338 1295.054810,1285.021118 
	C1280.143066,1278.945557 1265.215210,1272.804810 1249.953125,1267.715942 
	C1221.085693,1258.090820 1192.197266,1248.396240 1162.897339,1240.240479 
	C1137.336182,1233.125366 1111.281128,1227.682373 1085.284302,1222.269653 
	C1067.216309,1218.507812 1048.918701,1215.761963 1030.645752,1213.098267 
	C1016.046021,1210.970215 1001.339417,1209.547119 986.660400,1208.000122 
	C969.822144,1206.225586 952.978516,1204.455933 936.105530,1203.071289 
	C923.757568,1202.057861 911.364929,1201.470703 898.980164,1201.052124 
	C883.049683,1200.513672 867.107483,1200.106323 851.169434,1200.072388 
	C838.565857,1200.045532 825.959534,1200.623901 813.356995,1201.015869 
	C805.417480,1201.262573 797.480469,1201.614136 789.546387,1202.001343 
	C769.565308,1202.976196 749.582214,1203.920410 729.609009,1205.038574 
	C721.558655,1205.489136 713.516907,1206.220337 705.498108,1207.075317 
	C694.406311,1208.257935 683.343323,1209.707642 672.261719,1210.988525 
	C660.193176,1212.383667 648.081055,1213.456299 636.054321,1215.143066 
	C621.648438,1217.163452 607.304077,1219.631958 592.948975,1222.002686 
	C574.885925,1224.985962 556.767761,1227.700562 538.803528,1231.199585 
	C517.043701,1235.437866 495.450348,1240.523438 473.727264,1244.959717 
	C457.790497,1248.214355 444.141968,1255.536255 434.412476,1268.478394 
	C423.258087,1283.315918 418.668274,1300.159668 422.966797,1318.812500 
	C427.582336,1338.840942 439.264221,1353.343384 457.766815,1361.833740 
	C464.611053,1364.974365 472.427826,1365.995483 480.715149,1367.996948 
z"/>
<path fill="transparent" opacity="1.000000" stroke="none" 
	d="
M1712.733154,752.374634 
	C1723.088745,766.788269 1728.981079,782.676331 1730.812866,799.779846 
	C1732.353882,814.169678 1730.136597,828.480286 1724.491455,841.841797 
	C1715.173950,863.895569 1700.038086,880.871033 1678.203979,891.306702 
	C1667.671753,896.340576 1656.588745,899.133484 1644.819092,900.159241 
	C1623.827271,901.988770 1605.507690,895.507202 1587.572144,885.357605 
	C1565.074097,872.626160 1542.248901,860.376892 1518.985229,849.117310 
	C1485.644531,832.980591 1451.413818,818.743530 1416.332275,806.820923 
	C1385.498291,796.341919 1354.459839,786.392151 1323.213989,777.222656 
	C1300.886353,770.670349 1278.166626,765.343384 1255.437500,760.300598 
	C1232.980713,755.318115 1210.306152,751.307190 1187.700684,747.008667 
	C1173.105591,744.233398 1158.500488,741.473450 1143.830811,739.140869 
	C1131.049805,737.108643 1118.173462,735.673401 1105.336670,733.995178 
	C1090.059570,731.997986 1074.802490,729.820129 1059.493774,728.103760 
	C1047.555664,726.765320 1035.551270,726.019775 1023.577332,724.997559 
	C1008.162415,723.681702 992.751892,722.312317 977.332581,721.050354 
	C971.572998,720.578918 965.798157,720.219299 960.023010,720.028015 
	C947.423340,719.610657 934.819946,719.293823 922.216370,719.009766 
	C905.613708,718.635498 889.010559,718.147766 872.405518,718.041443 
	C847.033264,717.879028 821.656189,717.769836 796.286865,718.089539 
	C781.239197,718.279236 766.190247,719.136047 751.163818,720.052979 
	C732.741882,721.177246 714.331726,722.540955 695.937927,724.061218 
	C682.674133,725.157593 669.412781,726.418091 656.208862,728.072388 
	C637.039795,730.474060 617.880615,733.022766 598.795593,736.009399 
	C574.920166,739.745728 550.952148,743.183777 527.338867,748.224792 
	C499.799500,754.104065 472.590942,761.539246 445.257233,768.372864 
	C433.079590,771.417297 421.296783,775.835938 408.426178,776.124207 
	C387.144501,776.600708 367.934570,770.757812 350.932648,758.281982 
	C330.411652,743.223877 317.792694,723.084351 313.952637,697.662415 
	C310.908569,677.510254 313.617401,658.205078 323.394653,640.368286 
	C336.327393,616.774780 355.603333,600.785522 382.030640,593.880188 
	C405.988312,587.620178 429.752106,580.583740 453.812317,574.761292 
	C474.099457,569.851868 494.666779,566.079834 515.153076,562.021179 
	C529.253601,559.227722 543.401184,556.647949 557.577515,554.269104 
	C567.591248,552.588745 577.685730,551.386597 587.748840,550.004333 
	C599.753845,548.355225 611.747253,546.605286 623.776611,545.154968 
	C634.055664,543.915527 644.377747,543.031128 654.682007,542.001648 
	C667.928589,540.678223 681.173645,539.339111 694.425049,538.065491 
	C699.019531,537.623901 703.626099,537.266479 708.235291,537.028015 
	C722.108276,536.310242 735.981323,535.571106 749.861572,535.023315 
	C769.232117,534.258789 788.604614,533.417664 807.984619,533.047119 
	C836.751099,532.496948 865.524353,532.201294 894.295959,532.064209 
	C905.732178,532.009766 917.175537,532.571533 928.608765,533.026306 
	C942.813232,533.591187 957.016968,534.222961 971.209106,535.033875 
	C986.354736,535.899170 1001.496582,536.876465 1016.621399,538.045959 
	C1031.708618,539.212463 1046.789429,540.514465 1061.842529,542.054626 
	C1079.638672,543.875610 1097.446655,545.688843 1115.168457,548.100159 
	C1136.894897,551.056274 1158.585083,554.346436 1180.204834,558.002258 
	C1210.325928,563.095703 1240.440308,568.288696 1270.416382,574.159790 
	C1289.759155,577.948242 1308.991089,582.501587 1328.021362,587.642700 
	C1362.910645,597.068115 1397.890503,606.311951 1432.316040,617.256104 
	C1465.819702,627.907227 1498.882935,640.051697 1531.741211,652.585144 
	C1552.157593,660.372803 1571.999878,669.748413 1591.793945,679.061523 
	C1611.655029,688.406311 1631.329346,698.194336 1650.720093,708.476929 
	C1665.004639,716.051880 1679.109375,724.130615 1692.500854,733.161194 
	C1700.012939,738.227051 1705.911865,745.684875 1712.733154,752.374634 
z"/>
<path fill="transparent" opacity="1.000000" stroke="none" 
	d="
M1273.995850,939.998047 
	C1294.193848,946.646362 1314.170288,952.774048 1333.724121,960.038757 
	C1359.382080,969.571472 1384.937744,979.460388 1410.107788,990.202759 
	C1433.220703,1000.067200 1456.235962,1010.373291 1478.438599,1022.104248 
	C1506.162476,1036.752441 1533.509155,1052.265015 1560.050049,1068.945312 
	C1575.939697,1078.931641 1584.961182,1094.927246 1589.125854,1113.582031 
	C1592.384644,1128.178833 1591.633667,1142.292358 1586.386841,1156.148926 
	C1576.743164,1181.617065 1558.436401,1197.822266 1532.324219,1204.895264 
	C1515.084717,1209.564819 1497.997314,1207.689087 1481.876831,1200.220947 
	C1473.035645,1196.125244 1464.880249,1190.559570 1456.367432,1185.742065 
	C1444.703003,1179.140869 1433.176758,1172.261230 1421.258789,1166.149780 
	C1403.087402,1156.831787 1384.923096,1147.400513 1366.223022,1139.237793 
	C1342.148804,1128.729492 1317.714600,1118.983887 1293.122803,1109.741577 
	C1272.693481,1102.063721 1251.992676,1094.984497 1231.085083,1088.734253 
	C1205.013916,1080.940796 1178.713257,1073.845337 1152.310913,1067.252197 
	C1132.074829,1062.198730 1111.596436,1058.029419 1091.097778,1054.141235 
	C1074.071655,1050.911865 1056.887329,1048.467163 1039.721802,1046.037231 
	C1021.547668,1043.464355 1003.333984,1041.135498 985.097900,1039.046753 
	C970.887207,1037.419312 956.630920,1036.120239 942.367065,1035.044434 
	C926.076721,1033.815918 909.762512,1032.853027 893.445251,1032.047241 
	C881.686401,1031.466309 869.906006,1031.311157 858.134277,1031.002930 
	C844.532776,1030.646851 830.930115,1030.072266 817.328003,1030.071167 
	C803.898865,1030.070068 790.464233,1030.524292 777.042236,1031.043701 
	C764.995239,1031.509766 752.940063,1032.068848 740.928345,1033.067017 
	C724.057312,1034.469116 707.213745,1036.225098 690.376221,1037.999268 
	C675.691589,1039.546753 660.993347,1041.052734 646.371582,1043.084473 
	C631.320557,1045.175781 616.285339,1047.521240 601.368164,1050.402344 
	C579.430725,1054.639160 557.524109,1059.103760 535.757324,1064.133423 
	C520.373718,1067.688232 505.208099,1072.214966 490.011658,1076.541626 
	C478.665375,1079.771973 467.440338,1083.458008 455.421387,1082.999268 
	C438.547424,1082.355469 423.504883,1076.661499 410.054230,1066.560791 
	C394.502472,1054.881958 385.222595,1039.040161 381.374451,1020.369751 
	C377.456970,1001.363281 381.051056,983.242432 391.027802,966.433838 
	C403.741638,945.014038 423.497528,934.020142 446.833832,928.059326 
	C465.150452,923.380737 483.309631,918.046631 501.717896,913.775757 
	C524.746216,908.432922 547.900146,903.582947 571.108215,899.078796 
	C590.513611,895.312683 610.027344,892.027588 629.582825,889.136841 
	C644.512207,886.929932 659.564209,885.486816 674.594055,884.040588 
	C693.920349,882.180908 713.269470,880.531921 732.627563,879.036682 
	C744.483154,878.120789 756.368896,877.541138 768.250610,877.034485 
	C779.845703,876.540161 791.451416,876.262634 803.055115,876.011719 
	C821.151794,875.620422 839.249939,875.135986 857.348877,875.070618 
	C868.951355,875.028687 880.561218,875.552002 892.158875,876.034607 
	C904.873169,876.563599 917.589539,877.161194 930.282776,878.047668 
	C946.873108,879.206299 963.463501,880.453796 980.013428,882.075684 
	C997.638855,883.803040 1015.255676,885.726074 1032.804810,888.093323 
	C1049.489624,890.343933 1066.108887,893.123291 1082.708496,895.954041 
	C1101.217773,899.110474 1119.726807,902.315552 1138.135620,906.000610 
	C1156.518677,909.680481 1174.903198,913.489014 1193.061523,918.124146 
	C1220.007202,925.002319 1246.754395,932.658447 1273.995850,939.998047 
z"/>
<path fill="transparent" opacity="1.000000" stroke="none" 
	d="
M480.258087,1367.990112 
	C472.427826,1365.995483 464.611053,1364.974365 457.766815,1361.833740 
	C439.264221,1353.343384 427.582336,1338.840942 422.966797,1318.812500 
	C418.668274,1300.159668 423.258087,1283.315918 434.412476,1268.478394 
	C444.141968,1255.536255 457.790497,1248.214355 473.727264,1244.959717 
	C495.450348,1240.523438 517.043701,1235.437866 538.803528,1231.199585 
	C556.767761,1227.700562 574.885925,1224.985962 592.948975,1222.002686 
	C607.304077,1219.631958 621.648438,1217.163452 636.054321,1215.143066 
	C648.081055,1213.456299 660.193176,1212.383667 672.261719,1210.988525 
	C683.343323,1209.707642 694.406311,1208.257935 705.498108,1207.075317 
	C713.516907,1206.220337 721.558655,1205.489136 729.609009,1205.038574 
	C749.582214,1203.920410 769.565308,1202.976196 789.546387,1202.001343 
	C797.480469,1201.614136 805.417480,1201.262573 813.356995,1201.015869 
	C825.959534,1200.623901 838.565857,1200.045532 851.169434,1200.072388 
	C867.107483,1200.106323 883.049683,1200.513672 898.980164,1201.052124 
	C911.364929,1201.470703 923.757568,1202.057861 936.105530,1203.071289 
	C952.978516,1204.455933 969.822144,1206.225586 986.660400,1208.000122 
	C1001.339417,1209.547119 1016.046021,1210.970215 1030.645752,1213.098267 
	C1048.918701,1215.761963 1067.216309,1218.507812 1085.284302,1222.269653 
	C1111.281128,1227.682373 1137.336182,1233.125366 1162.897339,1240.240479 
	C1192.197266,1248.396240 1221.085693,1258.090820 1249.953125,1267.715942 
	C1265.215210,1272.804810 1280.143066,1278.945557 1295.054810,1285.021118 
	C1307.879150,1290.246338 1320.575928,1295.818481 1333.129272,1301.666138 
	C1347.077026,1308.163330 1361.056396,1314.672852 1374.559570,1322.026001 
	C1396.363159,1333.899048 1418.054077,1346.028198 1439.287598,1358.883057 
	C1455.569946,1368.740234 1463.515015,1384.272339 1466.081543,1403.021973 
	C1470.285645,1433.735596 1448.570312,1462.726440 1419.530640,1469.592651 
	C1402.952393,1473.512451 1386.967896,1470.977905 1372.194092,1461.796631 
	C1361.935547,1455.421265 1351.503296,1449.293701 1340.897339,1443.516602 
	C1326.378052,1435.608032 1311.938965,1427.432373 1296.893677,1420.636719 
	C1271.636719,1409.228271 1246.149536,1398.253662 1220.340332,1388.168213 
	C1200.161865,1380.282837 1179.579346,1373.217041 1158.758179,1367.244995 
	C1133.557007,1360.016479 1108.016846,1353.872925 1082.432251,1348.108276 
	C1061.740479,1343.446167 1040.810303,1339.780884 1019.898254,1336.182373 
	C1008.592102,1334.236938 997.110413,1333.286987 985.693848,1332.013794 
	C970.186035,1330.284546 954.673767,1328.584351 939.144775,1327.061035 
	C932.900452,1326.448608 926.610535,1326.160034 920.335022,1326.029663 
	C885.298035,1325.301270 850.261169,1324.364868 815.220032,1324.133179 
	C798.851074,1324.024780 782.463013,1325.166748 766.101624,1326.067383 
	C752.943115,1326.791992 739.790527,1327.789551 726.673645,1329.061523 
	C712.308228,1330.454468 697.986694,1332.300903 683.646118,1333.950562 
	C671.912964,1335.300293 660.144470,1336.402222 648.455994,1338.065918 
	C634.390320,1340.067993 620.390015,1342.531616 606.366455,1344.826172 
	C591.861084,1347.199707 577.325562,1349.412476 562.871094,1352.065674 
	C550.845886,1354.273193 538.947510,1357.163574 526.941711,1359.486450 
	C511.559753,1362.462402 496.126373,1365.172363 480.258087,1367.990112 
z"/>
</svg>